<svg width="76" height="84" viewBox="0 0 76 84" fill="none" xmlns="http://www.w3.org/2000/svg">
<path d="M35.9167 29.1667C35.9167 26.404 37.0141 23.7545 38.9676 21.801C40.9211 19.8475 43.5707 18.75 46.3333 18.75C50.9167 18.75 54.7917 21.7083 56.2083 25.7917C56.5417 26.875 56.75 28 56.75 29.1667C56.75 30.5346 56.4806 31.8891 55.9571 33.153C55.4336 34.4168 54.6663 35.5651 53.699 36.5324C52.7318 37.4996 51.5834 38.2669 50.3196 38.7904C49.0558 39.3139 47.7013 39.5833 46.3333 39.5833C41.7917 39.5833 38 36.7083 36.5 32.6667C36.125 31.5833 35.9167 30.375 35.9167 29.1667ZM8.83333 29.1667C8.83333 47.9167 30 73.5833 33.8333 78.375L29.6667 83.3333C29.6667 83.3333 0.5 51.0417 0.5 29.1667C0.5 15.9583 9.29167 4.79167 21.3333 1.20833C13.6667 8.08333 8.83333 18.0417 8.83333 29.1667ZM46.3333 0C62.4167 0 75.5 13.0417 75.5 29.1667C75.5 51.0417 46.3333 83.3333 46.3333 83.3333C46.3333 83.3333 17.1667 51.0417 17.1667 29.1667C17.1667 13.0417 30.25 0 46.3333 0ZM46.3333 8.33333C34.8333 8.33333 25.5 17.6667 25.5 29.1667C25.5 33.3333 25.5 41.6667 46.3333 69.625C67.1667 41.6667 67.1667 33.3333 67.1667 29.1667C67.1667 17.6667 57.8333 8.33333 46.3333 8.33333Z" fill="#363636"/>
</svg>
